<svg aria-hidden="true" style="position: absolute; width: 0; height: 0; overflow: hidden;" version="1.1" xmlns="http://www.w3.org/2000/svg" xmlns:xlink="http://www.w3.org/1999/xlink">
<defs>
<symbol id="icon-dollar" viewBox="0 0 19 32">
<path fill="#665822" style="fill: var(--color1, #665822)" d="M7.823 27.718v-24.544h1.572v24.544h-1.572zM13.115 10.537c-0.115-0.972-0.582-1.726-1.4-2.263s-1.822-0.805-3.010-0.805c-0.869 0-1.63 0.141-2.282 0.422-0.646 0.281-1.15 0.668-1.515 1.16-0.358 0.492-0.537 1.051-0.537 1.678 0 0.524 0.125 0.975 0.374 1.352 0.256 0.371 0.582 0.681 0.978 0.93 0.396 0.243 0.812 0.444 1.246 0.604 0.435 0.153 0.834 0.278 1.198 0.374l1.994 0.537c0.511 0.134 1.080 0.32 1.707 0.556 0.633 0.236 1.237 0.559 1.812 0.968 0.582 0.403 1.061 0.92 1.438 1.553s0.566 1.409 0.566 2.33c0 1.061-0.278 2.020-0.834 2.876-0.55 0.857-1.355 1.537-2.416 2.042-1.055 0.505-2.336 0.757-3.845 0.757-1.406 0-2.624-0.227-3.653-0.681-1.023-0.454-1.828-1.087-2.416-1.898-0.582-0.812-0.911-1.755-0.988-2.828h2.454c0.064 0.741 0.313 1.355 0.748 1.841 0.441 0.48 0.997 0.837 1.668 1.074 0.678 0.23 1.406 0.345 2.186 0.345 0.908 0 1.723-0.147 2.445-0.441 0.722-0.3 1.294-0.716 1.716-1.246 0.422-0.537 0.633-1.163 0.633-1.879 0-0.652-0.182-1.182-0.546-1.591s-0.844-0.742-1.438-0.997-1.237-0.479-1.927-0.671l-2.416-0.69c-1.534-0.441-2.748-1.071-3.643-1.889s-1.342-1.889-1.342-3.212c0-1.099 0.297-2.058 0.892-2.876 0.601-0.825 1.406-1.464 2.416-1.917 1.016-0.46 2.151-0.69 3.403-0.69 1.266 0 2.39 0.227 3.375 0.681 0.984 0.447 1.764 1.061 2.339 1.841 0.582 0.78 0.888 1.665 0.92 2.656h-2.301z"></path>
</symbol>
<symbol id="icon-sony" viewBox="0 0 99 32">
<path fill="#665822" style="fill: var(--color1, #665822)" d="M97.486 13.939c-0.833 0-1.508 0.675-1.508 1.508s0.675 1.508 1.508 1.508c0.833 0 1.508-0.675 1.508-1.508v0c0-0.833-0.675-1.508-1.508-1.508v0zM97.486 16.781v0c-0.003 0-0.007 0-0.011 0-0.737 0-1.334-0.597-1.334-1.334s0.597-1.334 1.334-1.334c0.737 0 1.334 0.597 1.334 1.334v0c0 0.003 0 0.007 0 0.011 0 0.731-0.593 1.323-1.323 1.323-0 0-0 0-0 0v0z"></path>
<path fill="#665822" style="fill: var(--color1, #665822)" d="M98.256 15.045c0-0.003 0-0.006 0-0.009 0-0.145-0.072-0.272-0.183-0.348l-0.001-0.001c-0.106-0.056-0.231-0.088-0.363-0.088-0.017 0-0.034 0.001-0.051 0.002l0.002-0h-0.738v1.671h0.206v-0.759h0.38l0.488 0.781h0.239l-0.51-0.781c0.304 0 0.532-0.13 0.532-0.466zM97.443 15.349h-0.315v-0.597h0.499c0.206 0 0.434 0 0.434 0.293s-0.369 0.304-0.607 0.304z"></path>
<path fill="#665822" style="fill: var(--color1, #665822)" d="M88.645 6.899l3.081-3.254c0.141-0.147 0.239-0.336 0.27-0.548l0.001-0.006c0-0.239-0.206-0.336-0.868-0.336h-0.781v-2.126h8.428v2.083h-1.15c-1.28 0-1.519 0.195-3.254 2.441l-4.881 5.272v3.254c0 0.824 0.412 1.085 1.605 1.085h1.844v2.007h-11.802v-2.018h1.844c1.193 0 1.605-0.293 1.605-1.085v-3.254l-5.749-6.357c-0.955-1.085-0.814-1.356-3.46-1.356v-2.072h10.674v2.083h-0.77c-0.77 0-1.085 0.141-1.085 0.434s0.239 0.434 0.391 0.629l2.896 3.167c0.132 0.181 0.342 0.297 0.58 0.297s0.449-0.116 0.579-0.295l0.001-0.002z"></path>
<path fill="#665822" style="fill: var(--color1, #665822)" d="M17.041 0.629h2.571v5.803h-2.376c-0.253-0.916-0.822-1.672-1.58-2.161l-0.015-0.009c-1.629-1.275-3.697-2.057-5.947-2.093l-0.008-0c-2.809 0-5.174 0.868-5.174 2.17 0 3.558 16.054 0.727 16.054 7.452 0 3.504-3.439 5.424-9.622 5.424-2.65-0.051-5.146-0.661-7.39-1.717l0.111 0.047c-0.597-0.347-0.857 0.325-0.965 1.172h-2.636v-5.955h2.386c0.353 1.021 1.014 1.861 1.87 2.43l0.017 0.011c1.15 1.085 3.905 1.833 6.433 1.812 3.818 0 5.12-0.868 5.12-2.083s-1.291-1.497-5.424-2.169l-3.558-0.553c-3.992-0.607-6.91-1.53-6.91-4.697s3.688-5.424 9.513-5.424c0.193-0.011 0.418-0.017 0.645-0.017 2.146 0 4.165 0.54 5.929 1.492l-0.066-0.033c0.553 0.358 1.085 0.401 1.085-0.933z"></path>
<path fill="#665822" style="fill: var(--color1, #665822)" d="M67.254 10.348v-6.454c0-0.846-0.445-1.085-1.703-1.085h-1.399v-2.061h9.405v2.007h-1.226c-1.258 0-1.703 0.293-1.703 1.085v13.017h-3.677l-11.932-11.281v8.19c0 0.824 0.445 1.139 1.703 1.139h1.638v1.985h-9.763v-1.996h1.627c1.258 0 1.692-0.315 1.692-1.139v-9.86c0-0.846-0.434-1.085-1.692-1.085h-1.616v-2.061h8.439l10.207 9.6z"></path>
<path fill="#665822" style="fill: var(--color1, #665822)" d="M35.797 0c-7.506 0-12.193 3.308-12.193 8.678s4.621 8.504 11.932 8.504c7.788 0 12.312-3.254 12.312-8.776 0.022-5.022-4.86-8.407-12.052-8.407zM35.623 15.035v0c-4.144 0-6.508-2.386-6.508-6.508s2.452-6.443 6.682-6.443c4.079 0 6.508 2.441 6.508 6.595s-2.419 6.357-6.671 6.357z"></path>
<path fill="#665822" style="fill: var(--color1, #665822)" d="M11.661 23.441c-0.012-0-0.026-0-0.040-0-1.238 0-2.309 0.713-2.827 1.75l-0.008 0.018c-0.266-0.493-0.632-0.901-1.073-1.207l-0.011-0.007c-0.494-0.357-1.112-0.571-1.78-0.571-0.585 0-1.131 0.164-1.596 0.449l0.013-0.008c-0.338 0.185-0.623 0.425-0.853 0.711l-0.004 0.005v-1.009h-0.673v8.179h0.705v-5.207c-0-0.017-0.001-0.037-0.001-0.057 0-0.661 0.27-1.259 0.706-1.689l0-0c0.427-0.442 1.025-0.717 1.687-0.717 0.021 0 0.042 0 0.063 0.001l-0.003-0c0.711 0.014 1.341 0.348 1.754 0.863l0.004 0.005c0.475 0.487 0.769 1.153 0.77 1.887v4.947h0.694v-4.99c-0.001-0.033-0.002-0.071-0.002-0.11 0-0.706 0.26-1.352 0.688-1.847l-0.003 0.003c0.432-0.456 1.042-0.739 1.717-0.739 0.029 0 0.059 0.001 0.088 0.002l-0.004-0c0.028-0.001 0.062-0.002 0.095-0.002 0.705 0 1.334 0.325 1.746 0.833l0.003 0.004c0.424 0.582 0.678 1.311 0.678 2.099 0 0.067-0.002 0.133-0.005 0.199l0-0.009v4.545h0.683v-4.599c0.004-0.067 0.006-0.145 0.006-0.224 0-0.945-0.321-1.816-0.859-2.508l0.007 0.009c-0.549-0.622-1.348-1.011-2.239-1.011-0.044 0-0.088 0.001-0.132 0.003l0.006-0z"></path>
<path fill="#665822" style="fill: var(--color1, #665822)" d="M23.105 25.426c-0.712-1.199-2-1.99-3.473-1.99-0.072 0-0.144 0.002-0.215 0.006l0.010-0c-0.002 0-0.004 0-0.006 0-1.163 0-2.21 0.496-2.942 1.288l-0.002 0.003c-0.788 0.757-1.281 1.817-1.291 2.992v0.002c-0 0.013-0 0.027-0 0.042 0 1.174 0.5 2.232 1.299 2.971l0.003 0.002c0.791 0.765 1.871 1.237 3.061 1.237 0.026 0 0.052-0 0.078-0.001l-0.004 0c0.814-0.014 1.565-0.276 2.182-0.713l-0.012 0.008c0.491-0.33 0.897-0.746 1.205-1.231l0.010-0.017c0 0.174 0 0.369 0 0.564v0.521c-0.005 0.052-0.008 0.112-0.008 0.174s0.003 0.122 0.008 0.181l-0.001-0.008v0.315h0.694v-8.136h-0.597v1.79zM22.075 25.166v0c0.669 0.648 1.085 1.554 1.085 2.558 0 0.008-0 0.017-0 0.025v-0.001c0 0.010 0 0.022 0 0.033 0 0.98-0.417 1.863-1.083 2.481l-0.002 0.002c-0.634 0.669-1.529 1.085-2.521 1.085-0.006 0-0.012-0-0.018-0h0.001c-0.997-0-1.898-0.416-2.537-1.084l-0.001-0.001c-0.669-0.632-1.085-1.526-1.085-2.516 0-0.004 0-0.008 0-0.012v0.001c0.002-1 0.418-1.903 1.084-2.548l0.001-0.001c0.62-0.668 1.503-1.085 2.483-1.085 0.012 0 0.023 0 0.035 0h-0.002c0.007-0 0.015-0 0.024-0 1.004 0 1.91 0.416 2.557 1.084l0.001 0.001z"></path>
<path fill="#665822" style="fill: var(--color1, #665822)" d="M30.796 23.615h-0.889l-4.057 5.424v-8.428h-0.748v11.162h0.748v-1.605l1.497-1.963c1.237 1.475 2.169 2.668 2.777 3.547v0.054h0.944l-3.254-4.187 2.951-3.97z"></path>
<path fill="#665822" style="fill: var(--color1, #665822)" d="M39.832 27.737c-0.003-1.181-0.488-2.248-1.269-3.015l-0.001-0.001c-0.732-0.782-1.771-1.269-2.924-1.269-0.009 0-0.019 0-0.028 0h0.001c-0.014-0-0.031-0-0.047-0-1.176 0-2.242 0.468-3.024 1.227l0.001-0.001c-0.806 0.702-1.313 1.73-1.313 2.876 0 0.003 0 0.007 0 0.010v-0c-0 0.020-0.001 0.044-0.001 0.069 0 1.219 0.503 2.321 1.312 3.109l0.001 0.001c0.774 0.779 1.846 1.261 3.031 1.261 0.048 0 0.096-0.001 0.144-0.002l-0.007 0c0.002 0 0.004 0 0.006 0 0.84 0 1.618-0.268 2.251-0.724l-0.012 0.008c0.689-0.486 1.233-1.134 1.583-1.891l0.012-0.029 0.087-0.184h-0.705v0.054c-0.386 0.629-0.879 1.153-1.459 1.562l-0.017 0.011c-0.545 0.297-1.194 0.472-1.883 0.472-0.074 0-0.148-0.002-0.221-0.006l0.010 0c-0.845-0.006-1.609-0.344-2.17-0.89l0.001 0.001c-0.584-0.522-0.981-1.243-1.083-2.056l-0.002-0.016c0-0.184 0-0.336 0-0.445h7.875v-0.13zM35.58 24.136v0c0.023-0.001 0.050-0.001 0.077-0.001 0.896 0 1.71 0.352 2.311 0.924l-0.001-0.001c0.61 0.55 1.028 1.302 1.148 2.151l0.002 0.019h-7.148c0.186-0.865 0.624-1.607 1.234-2.167l0.003-0.003c0.613-0.539 1.423-0.868 2.309-0.868 0.023 0 0.047 0 0.070 0.001l-0.004-0z"></path>
<path fill="#665822" style="fill: var(--color1, #665822)" d="M50.983 23.398c-1.486 0.008-2.794 0.761-3.57 1.905l-0.010 0.015v-4.795h-0.759v11.238h0.716v-1.692c0.325 0.505 0.746 0.92 1.242 1.227l0.017 0.010c0.61 0.414 1.359 0.666 2.165 0.683l0.004 0c0.014 0 0.030 0 0.047 0 1.181 0 2.252-0.472 3.035-1.238l-0.001 0.001c0.801-0.72 1.302-1.759 1.302-2.916 0-0.012-0-0.024-0-0.037v0.002c0-0.020 0.001-0.044 0.001-0.068 0-1.187-0.476-2.262-1.248-3.046l0.001 0.001c-0.738-0.787-1.78-1.28-2.938-1.291h-0.002zM54.552 27.737v0c0.001 0.033 0.002 0.072 0.002 0.111 0 0.963-0.419 1.829-1.084 2.425l-0.003 0.003c-0.686 0.621-1.599 1.001-2.602 1.001-0.050 0-0.1-0.001-0.15-0.003l0.007 0c-0.928-0.012-1.756-0.429-2.318-1.081l-0.003-0.004c-0.638-0.643-1.032-1.528-1.032-2.506s0.394-1.863 1.032-2.506l-0 0c0.642-0.656 1.537-1.063 2.527-1.063s1.885 0.407 2.527 1.062l0.001 0.001c0.667 0.646 1.082 1.549 1.085 2.549v0z"></path>
<path fill="#665822" style="fill: var(--color1, #665822)" d="M64.304 27.737c-0.003-1.181-0.488-2.248-1.269-3.015l-0.001-0.001c-0.732-0.782-1.771-1.269-2.924-1.269-0.009 0-0.019 0-0.028 0h0.001c-0.008-0-0.017-0-0.026-0-1.176 0-2.242 0.468-3.023 1.227l0.001-0.001c-0.806 0.702-1.313 1.73-1.313 2.876 0 0.003 0 0.007 0 0.010v-0c-0.001 0.029-0.001 0.064-0.001 0.098 0 2.396 1.943 4.339 4.339 4.339 0.023 0 0.047-0 0.070-0.001l-0.004 0c0.002 0 0.004 0 0.006 0 0.84 0 1.618-0.268 2.251-0.724l-0.012 0.008c0.705-0.479 1.261-1.129 1.615-1.891l0.012-0.029 0.087-0.184h-0.738v0.054c-0.398 0.631-0.905 1.156-1.5 1.561l-0.018 0.012c-0.544 0.297-1.191 0.472-1.88 0.472-0.071 0-0.142-0.002-0.213-0.006l0.010 0c-0.844-0.007-1.608-0.345-2.17-0.89l0.001 0.001c-0.577-0.527-0.971-1.245-1.083-2.054l-0.002-0.018c0-0.184 0-0.336 0-0.445h7.875v-0.13zM60.052 24.136v0c0.010-0 0.022-0 0.034-0 0.896 0 1.709 0.351 2.31 0.924l-0.001-0.001c0.614 0.547 1.033 1.301 1.148 2.151l0.002 0.018h-7.138c0.177-0.868 0.617-1.613 1.233-2.166l0.004-0.003c0.607-0.539 1.412-0.869 2.293-0.869 0.025 0 0.051 0 0.076 0.001l-0.004-0z"></path>
<path fill="#665822" style="fill: var(--color1, #665822)" d="M65.313 31.761h0.716v-11.184h-0.716v11.184z"></path>
<path fill="#665822" style="fill: var(--color1, #665822)" d="M67.254 31.761h0.716v-8.136h-0.716v8.136z"></path>
<path fill="#665822" style="fill: var(--color1, #665822)" d="M67.254 22.14h0.716v-1.54h-0.716v1.54z"></path>
<path fill="#665822" style="fill: var(--color1, #665822)" d="M77.538 27.737c-0.003-1.181-0.488-2.248-1.269-3.015l-0.001-0.001c-0.732-0.782-1.771-1.269-2.924-1.269-0.009 0-0.019 0-0.028 0h0.001c-0.008-0-0.017-0-0.026-0-1.176 0-2.242 0.468-3.023 1.227l0.001-0.001c-0.805 0.706-1.311 1.737-1.313 2.885v0c-0.001 0.029-0.001 0.064-0.001 0.098 0 2.396 1.943 4.339 4.339 4.339 0.023 0 0.046-0 0.070-0.001l-0.004 0c0.002 0 0.004 0 0.006 0 0.84 0 1.618-0.268 2.251-0.724l-0.012 0.008c0.689-0.486 1.233-1.134 1.582-1.891l0.012-0.029 0.087-0.184h-0.705v0.054c-0.398 0.631-0.905 1.156-1.5 1.561l-0.018 0.012c-0.544 0.297-1.191 0.472-1.88 0.472-0.071 0-0.142-0.002-0.213-0.006l0.010 0c-0.844-0.007-1.608-0.345-2.17-0.89l0.001 0.001c-0.577-0.527-0.971-1.245-1.083-2.054l-0.002-0.018c0-0.184 0-0.336 0-0.445h7.875v-0.13zM73.285 24.136v0c0.010-0 0.022-0 0.034-0 0.896 0 1.709 0.351 2.31 0.924l-0.001-0.001c0.614 0.547 1.033 1.301 1.148 2.151l0.002 0.018h-7.094c0.177-0.868 0.617-1.613 1.233-2.166l0.004-0.003c0.61-0.539 1.417-0.868 2.301-0.868 0.022 0 0.045 0 0.067 0.001l-0.003-0z"></path>
<path fill="#665822" style="fill: var(--color1, #665822)" d="M80.889 30.828l-2.896-7.235h-0.781l3.308 8.136h0.727l3.374-8.081-0.705-0.065-3.026 7.246z"></path>
<path fill="#665822" style="fill: var(--color1, #665822)" d="M92.475 29.288c-0.393 0.626-0.889 1.149-1.469 1.562l-0.017 0.011c-0.544 0.297-1.191 0.472-1.88 0.472-0.071 0-0.142-0.002-0.213-0.006l0.010 0c-0.837-0.036-1.584-0.394-2.125-0.954l-0.001-0.001c-0.584-0.522-0.981-1.243-1.083-2.056l-0.002-0.016c0-0.184 0-0.336 0-0.445h7.875v-0.13c-0.028-1.191-0.548-2.255-1.364-3.002l-0.003-0.003c-0.732-0.782-1.771-1.269-2.924-1.269-0.009 0-0.019 0-0.028 0h0.001c-0.008-0-0.017-0-0.026-0-1.176 0-2.242 0.468-3.023 1.227l0.001-0.001c-0.805 0.706-1.311 1.737-1.313 2.885v0c-0.001 0.039-0.002 0.085-0.002 0.132 0 1.188 0.477 2.264 1.25 3.047l-0-0c0.773 0.778 1.843 1.26 3.026 1.26 0.046 0 0.092-0.001 0.137-0.002l-0.007 0c0.002 0 0.004 0 0.006 0 0.844 0 1.624-0.268 2.262-0.724l-0.012 0.008c0.686-0.486 1.226-1.134 1.572-1.891l0.012-0.029 0.098-0.184h-0.716v0.054zM89.22 24.19v0c0.011-0 0.023-0 0.036-0 0.898 0 1.715 0.351 2.319 0.924l-0.002-0.001c0.606 0.553 1.023 1.304 1.147 2.15l0.002 0.020h-7.116c0.177-0.868 0.617-1.613 1.233-2.166l0.004-0.003c0.61-0.539 1.417-0.868 2.301-0.868 0.022 0 0.045 0 0.067 0.001l-0.003-0z"></path>
<path fill="#665822" style="fill: var(--color1, #665822)" d="M44.062 30.633c0 0.006 0 0.014 0 0.022 0 0.755-0.612 1.367-1.367 1.367s-1.367-0.612-1.367-1.367c0-0.755 0.612-1.367 1.367-1.367v0c0.755 0 1.367 0.612 1.367 1.367v0z"></path>
</symbol>
<symbol id="icon-jacket" viewBox="0 0 50 32">
<path fill="#665822" style="fill: var(--color1, #665822)" d="M49.825 22.211l-13.7-22.053c-0.057-0.097-0.162-0.162-0.281-0.162-0.016 0-0.031 0.001-0.046 0.003l0.002-0h-21.759c-0.005-0-0.012-0.001-0.018-0.001-0.117 0-0.219 0.063-0.274 0.158l-0.001 0.002-13.7 22.053c-0.015 0.038-0.023 0.081-0.023 0.127s0.009 0.089 0.024 0.129l-0.001-0.002c0.022 0.085 0.077 0.155 0.149 0.198l0.002 0.001 5.164 3.213c0.049 0.031 0.108 0.049 0.172 0.049 0.119 0 0.223-0.064 0.279-0.159l0.001-0.002 7.933-12.819v18.721c0.004 0.181 0.152 0.325 0.333 0.325 0 0 0 0 0 0h21.68c0.18 0 0.325-0.146 0.325-0.325v0-18.792l8.012 12.898c0.058 0.097 0.161 0.16 0.28 0.16 0.064 0 0.123-0.018 0.173-0.050l-0.001 0.001 5.164-3.213c0.074-0.043 0.129-0.113 0.15-0.196l0-0.002c0.004-0.022 0.007-0.048 0.007-0.074 0-0.069-0.017-0.134-0.047-0.19l0.001 0.002zM29.2 7.028l0.793 4.696-2.911 4.696v-8.337l0.706-1.388c0.015-0.018 0.029-0.039 0.039-0.062l0.001-0.002 2.959-5.767 3.236 2.991-4.672 2.848c-0.082 0.058-0.135 0.153-0.135 0.26 0 0.026 0.003 0.051 0.009 0.075l-0-0.002zM26.439 7.988v23.354h-3.030v-23.346c0.006-0.021 0.009-0.046 0.009-0.071s-0.003-0.050-0.009-0.073l0 0.002-0.159-0.309c0.503 0.24 1.094 0.381 1.717 0.381s1.214-0.14 1.742-0.391l-0.025 0.011-0.159 0.309c-0.032 0.039-0.055 0.088-0.063 0.141l-0 0.002zM20.49 6.703l-4.68-2.848 3.229-2.991 2.967 5.767c0.011 0.024 0.024 0.045 0.040 0.064l-0-0 0.706 1.388v8.345l-2.919-4.696 0.793-4.696c0.005-0.021 0.007-0.044 0.007-0.068 0-0.11-0.056-0.207-0.141-0.264l-0.001-0.001zM27.288 6.346c-0.608 0.589-1.437 0.953-2.352 0.953s-1.744-0.363-2.353-0.954l0.001 0.001-2.911-5.688h3.562v1.412c0 0.184 0.149 0.333 0.333 0.333v0h2.737c0.184 0 0.333-0.149 0.333-0.333v0-1.412h3.562zM25.979 0.658v1.087h-2.086v-1.087zM14.39 11.804v-4.355c-0.026-0.161-0.163-0.282-0.329-0.282s-0.303 0.121-0.329 0.28l-0 0.002v4.26l-8.337 13.438-4.601-2.856 13.414-21.632h4.085l-3.221 3.006c-0.065 0.061-0.105 0.147-0.105 0.243 0 0.012 0.001 0.024 0.002 0.036l-0-0.001c0.012 0.105 0.072 0.194 0.157 0.245l0.002 0.001 4.831 2.951-0.793 4.601c-0.004 0.018-0.006 0.038-0.006 0.059 0 0.064 0.020 0.123 0.054 0.172l-0.001-0.001 3.53 5.696v13.676h-8.353zM44.478 25.146l-8.385-13.485v-4.212c-0.013-0.173-0.157-0.309-0.332-0.309-0 0-0.001 0-0.001 0h0c-0.18 0-0.325 0.146-0.325 0.325v0 23.877h-8.313v-13.668l3.53-5.696c0.033-0.048 0.053-0.107 0.053-0.171 0-0.021-0.002-0.041-0.006-0.061l0 0.002-0.793-4.601 4.863-2.959c0.072-0.051 0.122-0.13 0.135-0.22l0-0.002c0.001-0.008 0.001-0.017 0.001-0.026 0-0.098-0.040-0.187-0.104-0.252v0l-3.229-3.030h4.030c0.026 0.023 0.058 0.039 0.094 0.047l0.001 0 13.39 21.585z"></path>
<path fill="#665822" style="fill: var(--color1, #665822)" d="M20.894 23.123l-1.222-1.214c-0.060-0.055-0.141-0.089-0.23-0.089s-0.17 0.034-0.23 0.089l0-0-3.966 3.966c-0.059 0.060-0.096 0.143-0.096 0.234s0.037 0.174 0.096 0.234l1.214 1.214c0.058 0.059 0.138 0.095 0.227 0.095 0.001 0 0.002 0 0.004-0h-0c0.001 0 0.003 0 0.005 0 0.091 0 0.173-0.036 0.233-0.095l3.966-3.966c0.059-0.060 0.096-0.143 0.096-0.234s-0.037-0.174-0.096-0.234l0 0zM16.658 26.86l-0.746-0.793 3.498-3.498 0.754 0.754z"></path>
<path fill="#665822" style="fill: var(--color1, #665822)" d="M30.659 21.91c-0.060-0.055-0.141-0.089-0.23-0.089s-0.17 0.034-0.23 0.089l0-0-1.222 1.214c-0.059 0.060-0.096 0.143-0.096 0.234s0.037 0.174 0.096 0.234l3.966 3.966c0.058 0.059 0.138 0.095 0.227 0.095 0.001 0 0.002 0 0.004-0h-0c0.001 0 0.003 0 0.005 0 0.091 0 0.173-0.036 0.233-0.095l1.214-1.214c0.059-0.060 0.096-0.143 0.096-0.234s-0.037-0.174-0.096-0.234l0 0zM33.174 26.86l-3.498-3.498 0.793-0.754 3.498 3.498z"></path>
</symbol>
<symbol id="icon-clock" viewBox="0 0 6 32">
<path fill="#665822" style="fill: var(--color1, #665822)" d="M4.987 30.070v-1.571c-0-0.002-0-0.003-0-0.005 0-0.025 0.020-0.045 0.045-0.045 0.002 0 0.004 0 0.006 0l-0-0h0.115c0.138 0 0.249-0.112 0.249-0.249s-0.112-0.249-0.249-0.249v0h-0.115c-0.002 0-0.004 0-0.006 0-0.019 0-0.035-0.010-0.043-0.025l-0-0v-9.45c0.001-0.008 0.002-0.016 0.002-0.025s-0.001-0.017-0.002-0.026l0 0.001c-0.002-0.007-0.003-0.014-0.003-0.022s0.001-0.016 0.004-0.023l-0 0.001c0.687-0.566 1.122-1.416 1.122-2.369s-0.435-1.803-1.116-2.364l-0.005-0.004c-0.002-0.006-0.003-0.013-0.003-0.020s0.001-0.014 0.004-0.020l-0 0c0.001-0.008 0.002-0.016 0.002-0.025s-0.001-0.017-0.002-0.026l0 0.001v-9.475c-0-0.002-0-0.003-0-0.005 0-0.028 0.022-0.050 0.050-0.050 0 0 0 0 0 0v0h0.499c0.138 0 0.249-0.112 0.249-0.249s-0.112-0.249-0.249-0.249v0h-0.499c-0.002 0-0.004 0-0.006 0-0.021 0-0.039-0.015-0.044-0.035l-0-0v-1.561c0-1.066-0.864-1.93-1.93-1.93s-1.93 0.864-1.93 1.93v0 1.561c0 0.028-0.022 0.050-0.050 0.050h-0.499c-0.138 0-0.249 0.112-0.249 0.249s0.112 0.249 0.249 0.249v0h0.499c0.028 0.003 0.050 0.026 0.050 0.055 0 0 0 0 0 0v0 9.495c0.002 0.006 0.003 0.013 0.003 0.020s-0.001 0.014-0.004 0.020l0-0c-0.687 0.566-1.122 1.416-1.122 2.369s0.435 1.803 1.116 2.364l0.005 0.004c0.002 0.007 0.003 0.014 0.003 0.022s-0.001 0.016-0.004 0.023l0-0.001v9.515c0 0 0 0 0 0 0 0.029-0.022 0.052-0.050 0.055l-0 0h-0.11c-0.138 0-0.249 0.112-0.249 0.249s0.112 0.249 0.249 0.249v0h0.12c0.028 0 0.050 0.022 0.050 0.050v1.541c0 1.066 0.864 1.93 1.93 1.93s1.93-0.864 1.93-1.93v0zM1.681 3.516c-0.003 0.001-0.007 0.001-0.011 0.001-0.019 0-0.035-0.010-0.044-0.026l-0-0v-1.561c-0.006-0.051-0.010-0.11-0.010-0.169 0-0.796 0.645-1.441 1.441-1.441s1.441 0.645 1.441 1.441c0 0.060-0.004 0.118-0.011 0.176l0.001-0.007v1.561c0 0 0 0 0 0 0 0.028-0.022 0.050-0.050 0.050-0.002 0-0.003-0-0.005-0l0 0zM1.681 13.255c-0.007 0.003-0.016 0.005-0.025 0.005s-0.018-0.002-0.025-0.006l0 0c-0.015-0.010-0.025-0.026-0.025-0.045v-9.151c-0.002-0.006-0.004-0.013-0.004-0.020 0-0.030 0.025-0.055 0.055-0.055 0.009 0 0.017 0.002 0.024 0.006l-0-0h2.773c0.022 0.007 0.038 0.028 0.038 0.052 0 0.006-0.001 0.012-0.003 0.018l0-0v9.146c0.003 0.007 0.005 0.014 0.005 0.022s-0.002 0.016-0.005 0.023l0-0c-0.008 0.004-0.018 0.006-0.027 0.006s-0.019-0.002-0.028-0.006l0 0c-0.394-0.204-0.86-0.324-1.354-0.324-0.002 0-0.005 0-0.007 0h0c-0.5 0-0.972 0.122-1.388 0.337l0.017-0.008zM0.499 15.998c0-1.424 1.154-2.578 2.578-2.578s2.578 1.154 2.578 2.578c0 1.424-1.154 2.578-2.578 2.578v0c-1.423-0.003-2.575-1.155-2.578-2.578v-0zM3.376 27.966c-0.004 0.001-0.008 0.001-0.012 0.001-0.025 0-0.047-0.017-0.053-0.041l-0-0v-1.242c0-0.138-0.112-0.249-0.249-0.249s-0.249 0.112-0.249 0.249v0 1.242c0 0.030-0.025 0.055-0.055 0.055v0h-1.077c-0.030 0-0.055-0.025-0.055-0.055v0-9.136c0.001-0.019 0.011-0.035 0.025-0.045l0-0c0.007-0.005 0.016-0.008 0.025-0.008s0.018 0.003 0.025 0.008l-0-0c0.394 0.201 0.859 0.319 1.352 0.319 0.005 0 0.010 0 0.015-0h-0.001c0.005 0 0.011 0 0.017 0 0.49 0 0.953-0.118 1.362-0.327l-0.017 0.008c0.008-0.005 0.017-0.007 0.027-0.007s0.020 0.003 0.028 0.008l-0-0c0.003 0.007 0.004 0.014 0.004 0.022s-0.002 0.016-0.005 0.023l0-0v9.136c0 0.030-0.025 0.055-0.055 0.055v0zM1.626 30.070v-1.571c0-0 0-0 0-0 0-0.028 0.022-0.050 0.050-0.050 0.002 0 0.004 0 0.005 0l-0-0h2.773c0.002-0 0.003-0 0.005-0 0.028 0 0.050 0.022 0.050 0.050 0 0 0 0 0 0v0 1.571c0 0.796-0.645 1.441-1.441 1.441s-1.441-0.645-1.441-1.441v0z"></path>
<path fill="#665822" style="fill: var(--color1, #665822)" d="M3.391 5.545c0 0 0-0 0-0 0-0.18-0.145-0.326-0.324-0.329h-0c-0.181 0.003-0.326 0.148-0.329 0.329v0c0.003 0.18 0.149 0.324 0.329 0.324 0 0 0 0 0 0v0c0.179 0 0.324-0.145 0.324-0.324v0z"></path>
<path fill="#665822" style="fill: var(--color1, #665822)" d="M3.391 7.346c0 0 0-0 0-0 0-0.18-0.145-0.326-0.324-0.329h-0c-0.181 0.003-0.326 0.148-0.329 0.329v0c0.003 0.18 0.149 0.324 0.329 0.324 0 0 0 0 0 0v0c0.179 0 0.324-0.145 0.324-0.324v0z"></path>
<path fill="#665822" style="fill: var(--color1, #665822)" d="M3.381 9.226c0.006-0.024 0.010-0.052 0.010-0.081 0-0.152-0.103-0.279-0.242-0.318l-0.002-0.001c-0.023-0.006-0.049-0.009-0.076-0.009-0.154 0-0.284 0.104-0.322 0.246l-0.001 0.002c-0.008 0.026-0.012 0.057-0.012 0.088 0 0.156 0.108 0.287 0.254 0.321l0.002 0c0.023 0.006 0.049 0.009 0.076 0.009 0.155 0 0.284-0.11 0.313-0.256l0-0.002z"></path>
<path fill="#665822" style="fill: var(--color1, #665822)" d="M3.236 16.421l0.035-0.040s0 0 0 0v-0.030s0-0.035 0-0.050v-1.74c0-0.138-0.112-0.249-0.249-0.249s-0.249 0.112-0.249 0.249v0 1.561c0.002 0.006 0.004 0.013 0.004 0.020s-0.001 0.014-0.004 0.020l0-0-0.748 0.793c-0.043 0.045-0.070 0.106-0.070 0.173 0 0.001 0 0.001 0 0.002v-0c0 0 0 0 0 0.001 0 0.066 0.027 0.126 0.070 0.169v0c0.044 0.047 0.106 0.076 0.175 0.076s0.131-0.029 0.174-0.075l0-0z"></path>
</symbol>
<symbol id="icon-kombez" viewBox="0 0 14 32">
<path fill="#665822" style="fill: var(--color1, #665822)" d="M14.059 29.58h-0.195v-9.786c0.001-0.006 0.002-0.012 0.002-0.018s-0.001-0.013-0.002-0.019l0 0.001-1.052-11.638v-7.871c0-0 0-0 0-0.001 0-0.137-0.111-0.247-0.247-0.247-0.006 0-0.011 0-0.017 0.001l0.001-0h-1.447c-0.134 0.003-0.242 0.113-0.242 0.247 0 0 0 0 0 0v0 7.645h-7.413v-7.645c0-0.137-0.111-0.247-0.247-0.247h-1.447c-0.137 0-0.247 0.111-0.247 0.247v0 7.892l-1.052 11.665v9.776h-0.205c-0.002-0-0.003-0-0.005-0-0.134 0-0.242 0.108-0.242 0.242 0 0 0 0 0 0v0 1.936c0.003 0.134 0.113 0.242 0.247 0.242 0 0 0 0 0 0h6.24c0 0 0 0 0 0 0.135 0 0.244-0.108 0.247-0.242v-1.936c0-0 0-0 0-0 0-0.134-0.108-0.242-0.242-0.242-0.002 0-0.004 0-0.006 0h-0.173v-5.856c0.049-0.425 0.407-0.753 0.842-0.753s0.793 0.327 0.841 0.749l0 0.004v5.856h-0.195c-0.002-0-0.003-0-0.005-0-0.134 0-0.242 0.108-0.242 0.242 0 0 0 0 0 0v0 1.936c0.003 0.134 0.112 0.242 0.247 0.242 0 0 0 0 0 0h6.256c0.134 0 0.242-0.108 0.242-0.242v-1.936c0-0.002 0-0.003 0-0.005 0-0.131-0.106-0.237-0.237-0.237-0.002 0-0.004 0-0.006 0h0zM1.999 3.936v-3.446h0.958v3.446zM2.162 5.382h-0.163v-0.952h0.958v0.958h-0.168c-0.073-0.093-0.185-0.152-0.31-0.153h-0c-0.001 0-0.002 0-0.003 0-0.126 0-0.238 0.057-0.312 0.147l-0.001 0.001zM2.789 5.882h0.168v2.010h-0.958v-1.999h0.163c0.073 0.096 0.187 0.158 0.316 0.158v0c0.129-0.003 0.242-0.068 0.31-0.167l0.001-0.001zM11.349 3.936v-3.446h0.958v3.446zM11.512 5.382h-0.163v-0.952h0.958v0.958h-0.163c-0.075-0.093-0.188-0.151-0.316-0.151s-0.241 0.059-0.315 0.15l-0.001 0.001zM12.143 5.882h0.163v2.010h-0.958v-1.999h0.163c0.073 0.096 0.187 0.158 0.316 0.158s0.243-0.062 0.315-0.157l0.001-0.001zM11.091 18.641h-0.842c-0.137 0-0.247 0.111-0.247 0.247v0 0.658h-5.703v-0.658c0-0 0-0 0-0 0-0.135-0.108-0.244-0.242-0.247h-0.837c-0.134 0.003-0.242 0.113-0.242 0.247 0 0 0 0 0 0v0 0.658h-2.036l1.052-11.181h10.323l1.052 11.181h-2.041v-0.658c0-0.137-0.111-0.247-0.247-0.247v0zM2.252 20.057c-0.114 0.669-0.635 1.188-1.296 1.298l-0.009 0.001v-1.315h1.305zM3.467 20.456v-1.321h0.342v1.321zM10.491 20.456v-1.321h0.347v1.321zM5.819 23.724v5.856h-4.888v-7.724c0.946-0.118 1.687-0.859 1.804-1.795l0.001-0.010h0.232v0.658c0 0 0 0 0 0 0 0.135 0.108 0.244 0.242 0.247h0.847c0.134-0.003 0.242-0.113 0.242-0.247 0-0 0-0 0-0v0-0.668h5.698v0.658c0 0.137 0.111 0.247 0.247 0.247v0h0.831c0.137 0 0.247-0.111 0.247-0.247v0-0.658h0.253c0.13 0.94 0.865 1.674 1.794 1.803l0.011 0.001v7.734h-4.883v-5.856c0-0.735-0.596-1.331-1.331-1.331s-1.331 0.596-1.331 1.331v0zM12.049 20.041h1.321v1.321c-0.667-0.113-1.186-0.632-1.298-1.29l-0.001-0.009zM6.261 30.069v1.442h-5.772v-1.442zM13.827 30.069v1.442h-5.767v-1.442z"></path>
<path fill="#665822" style="fill: var(--color1, #665822)" d="M11.838 16.079v-5.788c0-0.137-0.111-0.247-0.247-0.247v0h-8.881c-0.134 0.003-0.242 0.113-0.242 0.247 0 0 0 0 0 0v0 5.788c0 0 0 0 0 0 0 0.135 0.108 0.244 0.242 0.247h8.866c0.005 0 0.010 0 0.016 0 0.137 0 0.247-0.111 0.247-0.247 0-0 0-0 0-0.001v0zM2.957 15.837v-5.314h4.683v5.314zM8.129 12.328v-1.805h3.215v1.794zM8.129 15.837v-3.020h3.215v3.020z"></path>
</symbol>
<symbol id="icon-trausers" viewBox="0 0 21 32">
<path fill="#665822" style="fill: var(--color1, #665822)" d="M20.912 0h-20.609c-0.167 0-0.303 0.136-0.303 0.303v0 31.388c-0 0.002-0 0.004-0 0.006 0 0.167 0.136 0.303 0.303 0.303 0 0 0 0 0 0h8.38c0 0 0 0 0 0 0.167 0 0.303-0.136 0.303-0.303 0-0.002-0-0.005-0-0.007v0-2.521c0.001-0.012 0.002-0.025 0.002-0.039s-0.001-0.027-0.002-0.040l0 0.002v-20.957c0-0.89 0.722-1.612 1.612-1.612s1.612 0.722 1.612 1.612v0 20.957c-0.002 0.012-0.002 0.025-0.002 0.039s0.001 0.027 0.003 0.040l-0-0.002v2.521c0 0.171 0.139 0.309 0.309 0.309v0h8.38c0 0 0 0 0 0 0.167 0 0.303-0.136 0.303-0.303 0-0.002-0-0.005-0-0.007v0-31.388c0-0 0-0 0-0 0-0.163-0.128-0.296-0.289-0.303l-0.001-0zM20.629 16.116h-2.359v-1.115h2.359zM18.288 16.728h2.34v4.274h-2.359zM20.629 4.944c-0.775-0.137-1.378-0.74-1.513-1.504l-0.002-0.011h1.515zM20.629 2.824h-2.359v-2.179h2.359zM17.663 0.645v2.508h-0.748v-2.508zM4.912 0.645h11.391v2.179h-11.391zM4.268 0.645v2.508h-0.709v-2.508zM2.946 0.645v2.179h-2.301v-2.179zM0.645 16.716h2.301v4.274h-2.301zM2.946 16.116h-2.301v-1.115h2.301zM0.645 3.429h1.476c-0.13 0.766-0.716 1.365-1.464 1.513l-0.012 0.002zM8.38 31.388h-7.736v-1.992h7.736zM10.624 5.924c-0.008-0-0.017-0-0.026-0-1.223 0-2.214 0.989-2.218 2.211v20.629h-7.736v-7.168h2.579c0.010 0.001 0.021 0.002 0.033 0.002 0.167 0 0.303-0.136 0.303-0.303 0-0.007-0-0.015-0.001-0.022l0 0.001v-6.575c0-0.001 0-0.001 0-0.002 0-0.167-0.136-0.303-0.303-0.303-0.011 0-0.023 0.001-0.034 0.002l0.001-0h-2.579v-8.832c1.111-0.15 1.981-1.021 2.126-2.121l0.001-0.013h0.206c-0.001 0.011-0.002 0.024-0.002 0.037 0 0.148 0.106 0.271 0.245 0.297l0.002 0h1.386c0 0 0 0 0 0 0.167 0 0.303-0.136 0.303-0.303 0-0.002-0-0.005-0-0.007v0h11.391c0 0.171 0.139 0.309 0.309 0.309v0h1.354c0 0 0 0 0 0 0.167 0 0.303-0.136 0.303-0.303 0-0.002-0-0.005-0-0.007v0h0.213c0.157 1.108 1.033 1.971 2.135 2.107l0.012 0.001v8.832h-2.643c-0.167 0-0.303 0.136-0.303 0.303v0 6.575c0 0.167 0.136 0.303 0.303 0.303v0h2.643v7.207h-7.794v-20.629c0-0.004 0-0.008 0-0.013 0-1.225-0.993-2.218-2.218-2.218-0.002 0-0.005 0-0.007 0h0zM20.629 31.388h-7.736v-1.992h7.736z"></path>
<path fill="#665822" style="fill: var(--color1, #665822)" d="M10.611 0.645c-0.002 0-0.004-0-0.006-0-0.573 0-1.038 0.465-1.038 1.038s0.465 1.038 1.038 1.038c0.573 0 1.038-0.465 1.038-1.038v0c0 0 0 0 0-0 0-0.571-0.461-1.034-1.031-1.038h-0zM10.611 2.102c-0.002 0-0.004 0-0.006 0-0.235 0-0.425-0.191-0.425-0.425s0.191-0.425 0.425-0.425c0.235 0 0.425 0.191 0.425 0.425 0 0.002-0 0.004-0 0.007v-0c0.001 0.008 0.001 0.017 0.001 0.026 0 0.231-0.188 0.419-0.419 0.419-0 0-0.001 0-0.001 0h0z"></path>
</symbol>
<symbol id="icon-polo" viewBox="0 0 40 32">
<path fill="#665822" style="fill: var(--color1, #665822)" d="M39.762 26.632l-0.548-1.474c0.004-0.021 0.007-0.046 0.007-0.071s-0.002-0.050-0.007-0.073l0 0.002c-0.018-0.041-0.041-0.077-0.068-0.109l0 0.001-8.918-24.678s0-0.034 0-0.054c-0.057-0.106-0.167-0.176-0.293-0.176-0.006 0-0.013 0-0.019 0.001l0.001-0h-20.046c-0.023-0.005-0.050-0.008-0.078-0.008s-0.054 0.003-0.080 0.008l0.003-0c-0.075 0.038-0.133 0.102-0.162 0.18l-0.001 0.002-9.553 26.429c-0.012 0.032-0.019 0.069-0.019 0.107 0 0.136 0.086 0.252 0.206 0.297l0.002 0.001 6.038 2.177c0.036 0.016 0.078 0.025 0.122 0.025s0.086-0.009 0.124-0.026l-0.002 0.001c0.075-0.036 0.132-0.098 0.162-0.174l0.001-0.002 0.575-1.596 2.36-6.464v10.75c0 0.175 0.142 0.318 0.318 0.318v0h20.033c0.175 0 0.318-0.142 0.318-0.318v0-10.696l2.894 8.019c0.047 0.121 0.162 0.206 0.297 0.206 0.036 0 0.071-0.006 0.104-0.017l-0.002 0.001 6.044-2.177c0.124-0.045 0.21-0.162 0.21-0.299 0-0.041-0.008-0.080-0.022-0.116l0.001 0.002zM18.829 0.629h2.13v1.034h-2.13zM18.201 0.629v1.352c0 0 0 0 0 0 0 0.173 0.138 0.314 0.311 0.318h2.759c0.173-0.004 0.311-0.145 0.311-0.318 0-0 0-0 0-0v0-1.352h4.55c-0.175 2.673-2.384 4.775-5.084 4.78h-2.313c-2.701-0.009-4.909-2.108-5.090-4.764l-0.001-0.016zM6.166 28.498l-5.449-1.967 0.358-0.987 5.456 1.954zM10.223 19.181v0l0.96-10.96c-0.002-0.174-0.144-0.314-0.318-0.314-0.152 0-0.28 0.107-0.311 0.251l-0 0.002-0.974 10.885-2.819 7.863-5.47-1.961 8.789-24.34h2.941c0.18 3.021 2.671 5.403 5.719 5.409h3.699v1.109h-3.705c-0.175 0-0.318 0.142-0.318 0.318v23.927h-8.215zM19.053 7.782h1.677v23.589h-1.677zM30.215 19.107v0l-0.967-10.993c-0.031-0.145-0.159-0.253-0.311-0.253-0.174 0-0.315 0.14-0.318 0.313v0l0.96 10.96c-0.002 0.014-0.003 0.031-0.003 0.047s0.001 0.033 0.003 0.049l-0-0.002v12.143h-8.215v-23.589h1.352c0 0 0 0 0 0 0.173 0 0.314-0.138 0.318-0.311v-1.745c0.002-0.007 0.002-0.015 0.002-0.024s-0.001-0.017-0.003-0.024l0 0.001c2.1-0.798 3.593-2.734 3.731-5.035l0.001-0.016h2.934l8.789 24.34-5.449 1.961zM33.596 28.518l-0.365-1.007 5.449-1.961 0.358 1.001z"></path>
<path fill="#665822" style="fill: var(--color1, #665822)" d="M16.382 22.744c-0.057-0.057-0.136-0.091-0.223-0.091s-0.166 0.035-0.223 0.092l-4.341 4.341c-0.074 0.059-0.121 0.149-0.121 0.25 0 0.175 0.142 0.318 0.318 0.318 0.101 0 0.191-0.047 0.249-0.121l0.001-0.001 4.341-4.341c0.057-0.057 0.091-0.136 0.091-0.223s-0.035-0.166-0.092-0.223l0 0z"></path>
<path fill="#665822" style="fill: var(--color1, #665822)" d="M23.846 22.744c-0.057-0.057-0.136-0.091-0.223-0.091s-0.166 0.035-0.223 0.092l0-0c-0.060 0.056-0.097 0.135-0.097 0.223s0.037 0.167 0.097 0.223l0 0 4.32 4.341c0.057 0.058 0.136 0.094 0.223 0.095h0c0.087-0.004 0.165-0.039 0.223-0.095l-0 0c0.057-0.057 0.091-0.136 0.091-0.223s-0.035-0.166-0.092-0.223l0 0z"></path>
<path fill="#665822" style="fill: var(--color1, #665822)" d="M21.689 7.052c0.002 0 0.004 0 0.007 0 0.25 0 0.453-0.203 0.453-0.453s-0.203-0.453-0.453-0.453c-0.25 0-0.453 0.203-0.453 0.453v0c0 0 0 0 0 0 0 0.248 0.199 0.449 0.446 0.453h0z"></path>
</symbol>
<symbol id="icon-shoes" viewBox="0 0 28 32">
<path fill="#665822" style="fill: var(--color1, #665822)" d="M6.295 0c-0.133 0.001-0.253 0.051-0.344 0.134l0-0c-0.22 0.248-5.951 5.989-5.951 9.361 0.074 1.598 0.314 3.105 0.703 4.552l-0.034-0.148c0.258 0.954 0.452 2.078 0.54 3.231l0.004 0.064c0 1.309-0.115 4.203-0.21 6.41-0.004 0.023-0.007 0.049-0.007 0.076s0.002 0.053 0.007 0.079l-0-0.003c0 0.096 0 0.191 0 0.267 0 0.955-0.076 1.614-0.076 1.643v0c-0.002 0.066-0.003 0.143-0.003 0.22 0 1.576 0.51 3.032 1.374 4.213l-0.014-0.020c0.908 1.168 2.314 1.912 3.893 1.912 0.048 0 0.097-0.001 0.145-0.002l-0.007 0c0.042 0.001 0.092 0.002 0.142 0.002 1.581 0 2.988-0.744 3.89-1.901l0.008-0.011c0.85-1.161 1.36-2.618 1.36-4.193 0-0.077-0.001-0.154-0.004-0.231l0 0.011v-0.076c0-0.181 0-0.774-0.076-1.576 0-0.086 0-0.181 0-0.277 0.004-0.023 0.007-0.049 0.007-0.076s-0.002-0.053-0.007-0.079l0 0.003c-0.105-2.207-0.22-5.101-0.21-6.41 0.079-1.082 0.259-2.085 0.532-3.048l-0.026 0.106c0.399-1.418 0.654-3.056 0.706-4.744l0.001-0.032c-0.057-3.343-5.75-9.075-5.951-9.323-0.088-0.085-0.207-0.137-0.338-0.137-0.019 0-0.037 0.001-0.056 0.003l0.002-0zM6.295 31.035c-3.257 0-4.107-2.77-4.327-4.174 0.974 1.362 2.551 2.238 4.332 2.238s3.358-0.877 4.321-2.222l0.011-0.016c-0.22 1.404-1.079 4.174-4.337 4.174zM10.641 24.043c-0.112 2.311-2.013 4.143-4.341 4.143s-4.23-1.831-4.341-4.133l-0-0.010c0.086-1.91 0.239-5.378 0.22-6.839-0.082-1.288-0.283-2.488-0.593-3.644l0.029 0.129c-0.21-0.955-0.43-1.996-0.554-2.923l5.235-4.079 5.263 4.060c-0.16 1.267-0.378 2.378-0.662 3.462l0.041-0.185c-0.265 0.929-0.452 2.011-0.523 3.126l-0.002 0.046c-0.010 1.471 0.143 4.919 0.229 6.849zM5.999 5.731l-5.044 3.869v-0.105c0-2.56 4.26-7.193 5.321-8.31 1.070 1.118 5.321 5.731 5.33 8.31v0.105l-5.005-3.869c-0.083-0.066-0.19-0.105-0.306-0.105-0 0-0 0-0 0v0c-0.112 0.001-0.215 0.041-0.297 0.106l0.001-0.001z"></path>
<path fill="#665822" style="fill: var(--color1, #665822)" d="M7.097 18.703h-1.595c-0.269 0-0.487 0.218-0.487 0.487v0 5.856c0 0.269 0.218 0.487 0.487 0.487v0h1.595c0.269 0 0.487-0.218 0.487-0.487v-5.856c0-0.269-0.218-0.487-0.487-0.487v0zM6.61 19.659v4.881h-0.621v-4.862z"></path>
<path fill="#665822" style="fill: var(--color1, #665822)" d="M27.348 13.899c0.347-1.297 0.583-2.804 0.657-4.354l0.002-0.049c0-3.372-5.731-9.113-5.951-9.361-0.090-0.084-0.211-0.135-0.344-0.135s-0.254 0.051-0.344 0.135l0-0c-0.239 0.248-5.941 5.98-5.951 9.361 0.053 1.72 0.308 3.358 0.741 4.922l-0.034-0.145c0.244 0.853 0.421 1.849 0.494 2.875l0.003 0.048c0 1.309-0.105 4.203-0.201 6.41-0.004 0.023-0.007 0.049-0.007 0.076s0.003 0.053 0.007 0.079l-0-0.003c-0.002 0.040-0.004 0.087-0.004 0.134s0.001 0.094 0.004 0.14l-0-0.006c-0.048 0.955-0.076 1.567-0.076 1.633v0c-0.002 0.065-0.003 0.141-0.003 0.218 0 1.575 0.506 3.032 1.365 4.216l-0.014-0.021c0.916 1.168 2.327 1.912 3.912 1.912 0.045 0 0.090-0.001 0.135-0.002l-0.007 0c0.038 0.001 0.083 0.002 0.129 0.002 1.585 0 2.996-0.744 3.904-1.901l0.008-0.011c0.85-1.167 1.359-2.63 1.359-4.211 0-0.071-0.001-0.142-0.003-0.213l0 0.010s0-0.678-0.086-1.624c0.002-0.041 0.004-0.090 0.004-0.139s-0.001-0.097-0.004-0.145l0 0.007c0.004-0.023 0.007-0.049 0.007-0.076s-0.003-0.053-0.007-0.079l0 0.003c-0.096-2.207-0.21-5.101-0.201-6.41 0.079-1.211 0.259-2.337 0.534-3.425l-0.028 0.13zM21.712 31.035c-3.257 0-4.107-2.77-4.327-4.174 0.972 1.362 2.547 2.239 4.327 2.239s3.355-0.877 4.316-2.223l0.011-0.016c-0.248 1.404-1.070 4.174-4.327 4.174zM26.049 24.043c-0.156 2.273-2.038 4.058-4.337 4.058s-4.181-1.785-4.336-4.045l-0.001-0.013c0.086-1.91 0.229-5.378 0.22-6.839-0.075-1.154-0.262-2.23-0.552-3.263l0.026 0.11c-0.24-0.9-0.455-2.011-0.598-3.145l-0.014-0.131 5.254-4.088 5.235 4.050c-0.115 0.955-0.334 1.91-0.554 2.923-0.288 1.026-0.502 2.231-0.598 3.468l-0.004 0.066c0 1.471 0.172 4.919 0.258 6.849zM21.416 5.731l-5.024 3.878c-0.004-0.016-0.007-0.034-0.007-0.053s0.003-0.037 0.007-0.054l-0 0.001c0-2.56 4.26-7.193 5.321-8.31 1.060 1.118 5.311 5.731 5.33 8.31v0.105l-5.072-3.878c-0.077-0.054-0.173-0.086-0.277-0.086s-0.2 0.032-0.279 0.087l0.002-0.001z"></path>
<path fill="#665822" style="fill: var(--color1, #665822)" d="M22.505 18.703h-1.586c-0.269 0-0.487 0.218-0.487 0.487v0 5.856c0 0.269 0.218 0.487 0.487 0.487v0h1.586c0.269 0 0.487-0.218 0.487-0.487v-5.856c0-0.269-0.218-0.487-0.487-0.487v0zM22.018 19.659v4.881h-0.611v-4.862z"></path>
</symbol>
<symbol id="icon-check" viewBox="0 0 43 32">
<path d="M38.81 0l4.265 4.713-28.277 27.358-0.212-0.212-5.867-6.692-8.719-9.732 4.43-4.171 10.345 11.971z"></path>
</symbol>
<symbol id="icon-logo" viewBox="0 0 79 32">
<path fill="#665822" style="fill: var(--color1, #665822)" d="M47.2 9.8v3.52c0.345-0.555 0.815-1.002 1.373-1.31l0.019-0.010c0.524-0.279 1.146-0.442 1.807-0.442 0.045 0 0.091 0.001 0.136 0.002l-0.007-0c0.017-0 0.037-0 0.057-0 1.366 0 2.576 0.67 3.319 1.7l0.008 0.012c0.81 1.136 1.295 2.552 1.295 4.082 0 0.112-0.003 0.223-0.008 0.334l0.001-0.016c0.004 0.094 0.007 0.203 0.007 0.313 0 1.549-0.497 2.982-1.341 4.147l0.014-0.021c-0.456 0.56-1.062 0.98-1.758 1.201l-0.026 0.007c-0.661 0.231-1.422 0.366-2.215 0.368h-0.001c-0.016 0-0.035 0-0.054 0-1.428 0-2.761-0.408-3.888-1.114l0.031 0.018q-1.768-1.088-1.768-4.192v-10.088h1.496c0.005-0 0.010-0 0.016-0 0.822 0 1.488 0.666 1.488 1.488 0 0 0 0 0 0v0zM52.216 17.536c0.005-0.071 0.007-0.154 0.007-0.238 0-0.826-0.251-1.594-0.68-2.232l0.009 0.014c-0.382-0.563-1.019-0.929-1.741-0.929-0.021 0-0.041 0-0.062 0.001l0.003-0c-0.035-0.002-0.076-0.003-0.118-0.003-0.721 0-1.362 0.344-1.766 0.878l-0.004 0.005c-0.42 0.645-0.67 1.435-0.67 2.283 0 0.078 0.002 0.155 0.006 0.232l-0-0.011c-0.009 0.108-0.014 0.234-0.014 0.36 0 0.855 0.234 1.656 0.642 2.341l-0.012-0.021c0.392 0.565 1.037 0.93 1.767 0.93 0.029 0 0.057-0.001 0.085-0.002l-0.004 0c0.031 0.002 0.067 0.002 0.104 0.002 0.736 0 1.386-0.365 1.78-0.924l0.005-0.007c0.414-0.673 0.659-1.487 0.659-2.36 0-0.113-0.004-0.225-0.012-0.335l0.001 0.015z"></path>
<path fill="#665822" style="fill: var(--color1, #665822)" d="M64.68 19.864h2.192c-0.269 1.163-0.931 2.14-1.835 2.807l-0.013 0.009c-0.895 0.633-2.009 1.012-3.211 1.012-0.075 0-0.149-0.001-0.224-0.004l0.011 0c-0.087 0.006-0.189 0.009-0.291 0.009-1.435 0-2.725-0.619-3.617-1.605l-0.004-0.004c-0.886-1.114-1.422-2.541-1.422-4.093 0-0.153 0.005-0.305 0.015-0.455l-0.001 0.020c-0.007-0.116-0.011-0.251-0.011-0.387 0-1.517 0.519-2.913 1.39-4.019l-0.011 0.014c0.895-0.989 2.184-1.608 3.617-1.608 0.101 0 0.201 0.003 0.3 0.009l-0.014-0.001c0.089-0.005 0.193-0.008 0.297-0.008 1.487 0 2.831 0.616 3.79 1.607l0.001 0.001c0.883 1.123 1.416 2.556 1.416 4.115 0 0.112-0.003 0.223-0.008 0.333l0.001-0.016v0.488c0.009 0.046 0.014 0.098 0.014 0.152s-0.005 0.106-0.014 0.157l0.001-0.005h-7.648c-0.002 0.040-0.003 0.086-0.003 0.132 0 0.719 0.252 1.379 0.671 1.897l-0.004-0.006c0.38 0.436 0.937 0.71 1.558 0.71 0.054 0 0.108-0.002 0.161-0.006l-0.007 0c0.017 0 0.038 0.001 0.059 0.001 0.446 0 0.865-0.119 1.225-0.327l-0.012 0.006c0.095-0.031 0.176-0.083 0.24-0.152l0-0 0.248-0.24c0.076-0.147 0.188-0.267 0.324-0.35l0.004-0.002c0.199-0.124 0.44-0.197 0.699-0.197 0.041 0 0.082 0.002 0.123 0.006l-0.005-0zM59.4 16.44h4.488c-0.005-0.668-0.237-1.28-0.621-1.766l0.005 0.006c-0.423-0.379-0.984-0.611-1.6-0.611s-1.177 0.232-1.602 0.613l0.002-0.002c-0.417 0.449-0.672 1.053-0.672 1.717 0 0.015 0 0.030 0 0.045l-0-0.002z"></path>
<path fill="#665822" style="fill: var(--color1, #665822)" d="M76.448 19.864h2.2c-0.269 1.163-0.931 2.14-1.835 2.807l-0.013 0.009c-0.895 0.633-2.009 1.012-3.211 1.012-0.075 0-0.149-0.001-0.224-0.004l0.011 0c-0.087 0.006-0.189 0.009-0.291 0.009-1.435 0-2.725-0.619-3.617-1.605l-0.004-0.004c-0.886-1.114-1.422-2.541-1.422-4.093 0-0.153 0.005-0.305 0.015-0.455l-0.001 0.020c-0.007-0.115-0.011-0.249-0.011-0.384 0-1.517 0.516-2.913 1.382-4.023l-0.011 0.015c0.901-0.989 2.194-1.608 3.631-1.608 0.099 0 0.197 0.003 0.294 0.009l-0.013-0.001c0.087-0.005 0.188-0.008 0.291-0.008 1.489 0 2.835 0.616 3.796 1.607l0.001 0.001c0.883 1.123 1.416 2.556 1.416 4.115 0 0.112-0.003 0.223-0.008 0.333l0.001-0.016v0.488c0.009 0.046 0.014 0.098 0.014 0.152s-0.005 0.106-0.014 0.157l0.001-0.005h-7.624c-0.002 0.040-0.003 0.086-0.003 0.132 0 0.719 0.251 1.379 0.671 1.897l-0.004-0.006c0.38 0.436 0.937 0.71 1.558 0.71 0.054 0 0.108-0.002 0.161-0.006l-0.007 0c0.010 0 0.023 0 0.035 0 0.446 0 0.864-0.119 1.225-0.327l-0.012 0.006c0.095-0.031 0.176-0.083 0.24-0.152l0-0 0.248-0.24c0.076-0.147 0.188-0.267 0.324-0.35l0.004-0.002c0.197-0.124 0.436-0.197 0.692-0.197 0.041 0 0.081 0.002 0.121 0.006l-0.005-0zM71.2 16.44h4.488c-0.005-0.668-0.237-1.28-0.621-1.766l0.005 0.006c-0.423-0.379-0.984-0.611-1.6-0.611s-1.177 0.232-1.602 0.613l0.002-0.002c-0.417 0.449-0.672 1.053-0.672 1.717 0 0.015 0 0.030 0 0.045l-0-0.002z"></path>
<path fill="#faa61a" style="fill: var(--color2, #faa61a)" d="M11.824 21.504c0.133 0.605 0.334 1.139 0.6 1.633l-0.016-0.033h5.648v-1.6h-6.232z"></path>
<path fill="#faa61a" style="fill: var(--color2, #faa61a)" d="M11.696 18.072v1.616l6.36-0.016v-1.6h-6.36z"></path>
<path fill="#faa61a" style="fill: var(--color2, #faa61a)" d="M11.696 14.72h6.368v1.536h-6.368v-1.536z"></path>
<path fill="#faa61a" style="fill: var(--color2, #faa61a)" d="M11.824 9.472h6.232v-5.024c-0.055-0.002-0.119-0.003-0.184-0.003-3 0-5.498 2.147-6.042 4.988l-0.006 0.039z"></path>
<path fill="#faa61a" style="fill: var(--color2, #faa61a)" d="M13.824 24.944c1.108 0.993 2.58 1.6 4.194 1.6 0.013 0 0.027-0 0.040-0h-0.002v-1.6z"></path>
<path fill="#faa61a" style="fill: var(--color2, #faa61a)" d="M11.696 12.904h6.4v-1.6h-6.4z"></path>
<path fill="#fff" style="fill: var(--color3, #fff)" d="M19.848 8.248c-0.485-0.493-1.159-0.798-1.904-0.8h-0c-0.442 0-0.8-0.358-0.8-0.8s0.358-0.8 0.8-0.8v0c0.003 0 0.005 0 0.008 0 1.179 0 2.246 0.48 3.015 1.256l0 0c0.092 0.129 0.147 0.289 0.147 0.463 0 0.442-0.358 0.8-0.8 0.8-0.175 0-0.338-0.057-0.47-0.152l0.002 0.002z"></path>
<path fill="#665822" style="fill: var(--color1, #665822)" d="M30.024 9.48h-4c-0.356-2.226-1.567-4.117-3.28-5.36l-0.024-0.016 2.552-2.552c0.166-0.164 0.269-0.392 0.269-0.644 0-0.5-0.405-0.905-0.905-0.905-0.248 0-0.473 0.1-0.636 0.261l0-0-2.944 2.936c-0.898-0.376-1.941-0.595-3.035-0.595-1.18 0-2.302 0.254-3.311 0.711l0.051-0.020-3.032-3.032c-0.164-0.163-0.39-0.264-0.64-0.264-0.501 0-0.908 0.406-0.908 0.908 0 0.252 0.102 0.48 0.268 0.644l2.696 2.696c-1.653 1.244-2.807 3.074-3.154 5.177l-0.006 0.047h-4c-3.128 0.236-5.578 2.832-5.578 6s2.449 5.764 5.557 5.999l0.020 0.001h4c0.584 3.608 3.477 6.392 7.091 6.805l0.037 0.003v2.776c-0.003 0.026-0.004 0.055-0.004 0.085 0 0.504 0.408 0.912 0.912 0.912s0.912-0.408 0.912-0.912c0-0.030-0.001-0.060-0.004-0.089l0 0.004v-2.76c3.658-0.389 6.562-3.179 7.122-6.747l0.006-0.045h4c3.128-0.236 5.578-2.832 5.578-6s-2.449-5.764-5.557-5.999l-0.020-0.001zM9.872 19.688h-3.856c-2.32 0-4.2-1.88-4.2-4.2s1.88-4.2 4.2-4.2v0h3.856zM24.216 9.464h-12.392c1.376-6.696 11-6.696 12.392 0zM13.816 24.944h8.4c-1.108 0.996-2.581 1.605-4.196 1.605s-3.088-0.609-4.202-1.61l0.006 0.005zM23.632 23.128h-11.2c-0.25-0.461-0.451-0.995-0.576-1.558l-0.008-0.042h12.368c-0.126 0.603-0.325 1.138-0.592 1.631l0.016-0.031zM24.344 19.688h-12.648v-1.6h12.656zM24.344 16.256h-12.648v-1.536h12.656zM24.344 12.904h-12.648v-1.6h12.656zM30.016 19.696h-3.848v-8.408h3.856c2.32 0 4.2 1.88 4.2 4.2s-1.88 4.2-4.2 4.2v0z"></path>
</symbol>
<symbol id="icon-burger" viewBox="0 0 45 32">
<path fill="none" stroke="#665822" style="stroke: var(--color1, #665822)" stroke-linejoin="miter" stroke-linecap="butt" stroke-miterlimit="10" stroke-width="1.8824" d="M0 0.941h45.176"></path>
<path fill="none" stroke="#665822" style="stroke: var(--color1, #665822)" stroke-linejoin="miter" stroke-linecap="butt" stroke-miterlimit="10" stroke-width="1.8824" d="M0 16h45.176"></path>
<path fill="none" stroke="#665822" style="stroke: var(--color1, #665822)" stroke-linejoin="miter" stroke-linecap="butt" stroke-miterlimit="10" stroke-width="1.8824" d="M0 31.059h45.176"></path>
</symbol>
<symbol id="icon-cross" viewBox="0 0 32 32">
<path fill="none" stroke="#665822" style="stroke: var(--color1, #665822)" stroke-linejoin="miter" stroke-linecap="butt" stroke-miterlimit="10" stroke-width="1.295" d="M31.534 31.534l-31.081-31.081"></path>
<path fill="none" stroke="#665822" style="stroke: var(--color1, #665822)" stroke-linejoin="miter" stroke-linecap="butt" stroke-miterlimit="10" stroke-width="1.295" d="M31.534 0.453l-31.081 31.081"></path>
</symbol>
<symbol id="icon-plus" viewBox="0 0 32 32">
<path fill="none" stroke="#665822" style="stroke: var(--color1, #665822)" stroke-linejoin="miter" stroke-linecap="butt" stroke-miterlimit="10" stroke-width="0.9412" d="M0 15.972h31.944"></path>
<path fill="none" stroke="#665822" style="stroke: var(--color1, #665822)" stroke-linejoin="miter" stroke-linecap="butt" stroke-miterlimit="10" stroke-width="0.9412" d="M15.972 31.944v-31.944"></path>
</symbol>
<symbol id="icon-minus" viewBox="0 0 32 32">
<path fill="none" stroke="#665822" style="stroke: var(--color1, #665822)" stroke-linejoin="miter" stroke-linecap="butt" stroke-miterlimit="10" stroke-width="0.9412" d="M0 15.972h31.944"></path>
</symbol>
</defs>
</svg>
